<svg width="223" height="91" viewBox="0 0 223 91" fill="none" xmlns="http://www.w3.org/2000/svg">
<rect x="1.2168" y="0.836426" width="220.5" height="88.5" stroke="#D9DCE5" stroke-width="1.5"/>
<path d="M74.1028 68.0864V56.8864H78.3268C79.4895 56.8864 80.3695 57.1584 80.9668 57.7024C81.5641 58.2464 81.8628 58.9291 81.8628 59.7504C81.8628 60.4651 81.6708 61.0358 81.2868 61.4624C80.9028 61.8784 80.4388 62.1611 79.8948 62.3104C80.3215 62.3958 80.7001 62.5664 81.0308 62.8224C81.3721 63.0784 81.6388 63.3984 81.8308 63.7824C82.0228 64.1664 82.1188 64.5824 82.1188 65.0304C82.1188 65.6064 81.9748 66.1291 81.6868 66.5984C81.4095 67.0571 80.9988 67.4198 80.4548 67.6864C79.9108 67.9531 79.2441 68.0864 78.4548 68.0864H74.1028ZM75.7988 61.6864H78.1188C78.7695 61.6864 79.2655 61.5371 79.6068 61.2384C79.9481 60.9291 80.1188 60.5078 80.1188 59.9744C80.1188 59.4518 79.9481 59.0358 79.6068 58.7264C79.2761 58.4171 78.7695 58.2624 78.0868 58.2624H75.7988V61.6864ZM75.7988 66.6944H78.2308C78.9135 66.6944 79.4415 66.5344 79.8148 66.2144C80.1988 65.8944 80.3908 65.4464 80.3908 64.8704C80.3908 64.2944 80.1935 63.8411 79.7988 63.5104C79.4041 63.1691 78.8708 62.9984 78.1988 62.9984H75.7988V66.6944ZM87.6258 68.2784C86.8471 68.2784 86.1538 68.1078 85.5458 67.7664C84.9485 67.4144 84.4791 66.9291 84.1378 66.3104C83.7965 65.6918 83.6258 64.9718 83.6258 64.1504C83.6258 63.3184 83.7911 62.5878 84.1218 61.9584C84.4631 61.3291 84.9325 60.8384 85.5298 60.4864C86.1378 60.1344 86.8418 59.9584 87.6418 59.9584C88.4205 59.9584 89.0978 60.1344 89.6738 60.4864C90.2498 60.8278 90.6978 61.2864 91.0178 61.8624C91.3378 62.4384 91.4978 63.0731 91.4978 63.7664C91.4978 63.8731 91.4925 63.9904 91.4818 64.1184C91.4818 64.2358 91.4765 64.3691 91.4658 64.5184H85.2898C85.3431 65.2864 85.5938 65.8731 86.0418 66.2784C86.5005 66.6731 87.0285 66.8704 87.6258 66.8704C88.1058 66.8704 88.5058 66.7638 88.8258 66.5504C89.1565 66.3264 89.4018 66.0278 89.5618 65.6544H91.2578C91.0445 66.4011 90.6178 67.0251 89.9778 67.5264C89.3485 68.0278 88.5645 68.2784 87.6258 68.2784ZM87.6258 61.3504C87.0605 61.3504 86.5591 61.5211 86.1218 61.8624C85.6845 62.1931 85.4178 62.6944 85.3218 63.3664H89.8018C89.7698 62.7478 89.5511 62.2571 89.1458 61.8944C88.7405 61.5318 88.2338 61.3504 87.6258 61.3504ZM96.8735 68.2784C96.1055 68.2784 95.4282 68.0971 94.8415 67.7344C94.2549 67.3718 93.7962 66.8758 93.4655 66.2464C93.1349 65.6171 92.9695 64.9024 92.9695 64.1024C92.9695 63.3024 93.1349 62.5931 93.4655 61.9744C93.7962 61.3451 94.2549 60.8544 94.8415 60.5024C95.4389 60.1398 96.1215 59.9584 96.8895 59.9584C97.5189 59.9584 98.0682 60.0811 98.5375 60.3264C99.0175 60.5718 99.3909 60.9184 99.6575 61.3664V56.5664H101.354V68.0864H99.8335L99.6575 66.8544C99.4015 67.2278 99.0495 67.5584 98.6015 67.8464C98.1535 68.1344 97.5775 68.2784 96.8735 68.2784ZM97.1775 66.8064C97.9029 66.8064 98.4949 66.5558 98.9535 66.0544C99.4229 65.5531 99.6575 64.9078 99.6575 64.1184C99.6575 63.3184 99.4229 62.6731 98.9535 62.1824C98.4949 61.6811 97.9029 61.4304 97.1775 61.4304C96.4522 61.4304 95.8549 61.6811 95.3855 62.1824C94.9162 62.6731 94.6815 63.3184 94.6815 64.1184C94.6815 64.6411 94.7882 65.1051 95.0015 65.5104C95.2149 65.9158 95.5082 66.2358 95.8815 66.4704C96.2655 66.6944 96.6975 66.8064 97.1775 66.8064ZM107.587 68.0864V56.8864H111.443C112.329 56.8864 113.054 57.0358 113.619 57.3344C114.195 57.6331 114.622 58.0384 114.899 58.5504C115.177 59.0518 115.315 59.6118 115.315 60.2304C115.315 60.9238 115.129 61.5531 114.755 62.1184C114.393 62.6838 113.822 63.0891 113.043 63.3344L115.427 68.0864H113.459L111.283 63.5744H109.283V68.0864H107.587ZM109.283 62.2944H111.347C112.115 62.2944 112.675 62.1078 113.027 61.7344C113.39 61.3611 113.571 60.8758 113.571 60.2784C113.571 59.6811 113.395 59.2064 113.043 58.8544C112.691 58.4918 112.121 58.3104 111.331 58.3104H109.283V62.2944ZM120.485 68.2784C119.728 68.2784 119.045 68.1078 118.437 67.7664C117.84 67.4144 117.365 66.9291 117.013 66.3104C116.661 65.6811 116.485 64.9504 116.485 64.1184C116.485 63.2864 116.661 62.5611 117.013 61.9424C117.376 61.3131 117.861 60.8278 118.469 60.4864C119.077 60.1344 119.755 59.9584 120.501 59.9584C121.259 59.9584 121.936 60.1344 122.533 60.4864C123.141 60.8278 123.621 61.3131 123.973 61.9424C124.336 62.5611 124.517 63.2864 124.517 64.1184C124.517 64.9504 124.336 65.6811 123.973 66.3104C123.621 66.9291 123.141 67.4144 122.533 67.7664C121.925 68.1078 121.243 68.2784 120.485 68.2784ZM120.485 66.8224C120.891 66.8224 121.264 66.7211 121.605 66.5184C121.957 66.3158 122.24 66.0171 122.453 65.6224C122.667 65.2171 122.773 64.7158 122.773 64.1184C122.773 63.5211 122.667 63.0251 122.453 62.6304C122.251 62.2251 121.973 61.9211 121.621 61.7184C121.28 61.5158 120.907 61.4144 120.501 61.4144C120.096 61.4144 119.717 61.5158 119.365 61.7184C119.024 61.9211 118.747 62.2251 118.533 62.6304C118.32 63.0251 118.213 63.5211 118.213 64.1184C118.213 64.7158 118.32 65.2171 118.533 65.6224C118.747 66.0171 119.024 66.3158 119.365 66.5184C119.707 66.7211 120.08 66.8224 120.485 66.8224ZM130.063 68.2784C129.306 68.2784 128.623 68.1078 128.015 67.7664C127.418 67.4144 126.943 66.9291 126.591 66.3104C126.239 65.6811 126.063 64.9504 126.063 64.1184C126.063 63.2864 126.239 62.5611 126.591 61.9424C126.954 61.3131 127.439 60.8278 128.047 60.4864C128.655 60.1344 129.333 59.9584 130.079 59.9584C130.837 59.9584 131.514 60.1344 132.111 60.4864C132.719 60.8278 133.199 61.3131 133.551 61.9424C133.914 62.5611 134.095 63.2864 134.095 64.1184C134.095 64.9504 133.914 65.6811 133.551 66.3104C133.199 66.9291 132.719 67.4144 132.111 67.7664C131.503 68.1078 130.821 68.2784 130.063 68.2784ZM130.063 66.8224C130.469 66.8224 130.842 66.7211 131.183 66.5184C131.535 66.3158 131.818 66.0171 132.031 65.6224C132.245 65.2171 132.351 64.7158 132.351 64.1184C132.351 63.5211 132.245 63.0251 132.031 62.6304C131.829 62.2251 131.551 61.9211 131.199 61.7184C130.858 61.5158 130.485 61.4144 130.079 61.4144C129.674 61.4144 129.295 61.5158 128.943 61.7184C128.602 61.9211 128.325 62.2251 128.111 62.6304C127.898 63.0251 127.791 63.5211 127.791 64.1184C127.791 64.7158 127.898 65.2171 128.111 65.6224C128.325 66.0171 128.602 66.3158 128.943 66.5184C129.285 66.7211 129.658 66.8224 130.063 66.8224ZM135.929 68.0864V60.1504H137.433L137.577 61.2704C137.833 60.8651 138.169 60.5451 138.585 60.3104C139.012 60.0758 139.503 59.9584 140.057 59.9584C141.316 59.9584 142.191 60.4544 142.681 61.4464C142.969 60.9878 143.353 60.6251 143.833 60.3584C144.324 60.0918 144.852 59.9584 145.417 59.9584C146.409 59.9584 147.188 60.2571 147.753 60.8544C148.319 61.4518 148.601 62.3424 148.601 63.5264V68.0864H146.905V63.7024C146.905 62.1664 146.319 61.3984 145.145 61.3984C144.548 61.3984 144.057 61.6224 143.673 62.0704C143.3 62.5184 143.113 63.1584 143.113 63.9904V68.0864H141.417V63.7024C141.417 62.1664 140.825 61.3984 139.641 61.3984C139.055 61.3984 138.569 61.6224 138.185 62.0704C137.812 62.5184 137.625 63.1584 137.625 63.9904V68.0864H135.929Z" fill="#808080"/>
<g clip-path="url(#clip0_2551_236)">
<path d="M101.459 30.5139H121.475C122.3 30.5139 122.969 29.8451 122.969 29.0201C122.969 28.1951 122.3 27.5264 121.475 27.5264H101.459C100.634 27.5264 99.9648 28.1951 99.9648 29.0201C99.9648 29.8451 100.634 30.5139 101.459 30.5139Z" fill="#666666"/>
<path d="M112.961 24.3044C112.525 24.3044 112.17 24.659 112.17 25.095V26.12H118.289V25.095C118.289 24.659 117.934 24.3044 117.498 24.3044H112.961Z" fill="#666666"/>
<path d="M103.237 25.0951C103.237 23.8837 104.223 22.8982 105.434 22.8982H109.972C110.548 22.8982 111.073 23.1217 111.466 23.4862C111.858 23.1217 112.383 22.8982 112.959 22.8982H117.497C118.709 22.8982 119.694 23.8837 119.694 25.0951V26.1201H121.976V21.277C121.976 20.452 121.308 19.7832 120.483 19.7832H102.449C101.624 19.7832 100.955 20.452 100.955 21.277V26.1201H103.237V25.0951Z" fill="#666666"/>
<path d="M105.435 24.3044C104.999 24.3044 104.645 24.659 104.645 25.095V26.12H110.764V25.095C110.764 24.659 110.409 24.3044 109.973 24.3044H105.435Z" fill="#666666"/>
<path d="M99.4668 31.9201V38.3897H100.873V35.8257H122.061V38.3897H123.467V31.9201H99.4668Z" fill="#666666"/>
</g>
<defs>
<clipPath id="clip0_2551_236">
<rect width="24" height="24" fill="white" transform="translate(99.4668 17.0864)"/>
</clipPath>
</defs>
</svg>
