<svg width="223" height="91" viewBox="0 0 223 91" fill="none" xmlns="http://www.w3.org/2000/svg">
<rect x="1.2168" y="1.41943" width="220.5" height="88.5" stroke="#D9DCE5" stroke-width="1.5"/>
<path d="M65.1028 69.8179V58.6179H68.7348C70.0468 58.6179 71.1241 58.8472 71.9668 59.3059C72.8201 59.7645 73.4495 60.4152 73.8548 61.2579C74.2708 62.0899 74.4788 63.0819 74.4788 64.2339C74.4788 65.3752 74.2708 66.3672 73.8548 67.2099C73.4495 68.0419 72.8201 68.6872 71.9668 69.1459C71.1241 69.5939 70.0468 69.8179 68.7348 69.8179H65.1028ZM66.7988 68.3779H68.6708C69.6841 68.3779 70.4841 68.2125 71.0708 67.8819C71.6681 67.5512 72.0948 67.0765 72.3508 66.4579C72.6175 65.8392 72.7508 65.0979 72.7508 64.2339C72.7508 63.3699 72.6175 62.6232 72.3508 61.9939C72.0948 61.3645 71.6681 60.8845 71.0708 60.5539C70.4841 60.2125 69.6841 60.0419 68.6708 60.0419H66.7988V68.3779ZM77.2488 60.3779C76.9288 60.3779 76.6621 60.2819 76.4488 60.0899C76.2461 59.8872 76.1448 59.6365 76.1448 59.3379C76.1448 59.0392 76.2461 58.7939 76.4488 58.6019C76.6621 58.3992 76.9288 58.2979 77.2488 58.2979C77.5688 58.2979 77.8301 58.3992 78.0328 58.6019C78.2461 58.7939 78.3528 59.0392 78.3528 59.3379C78.3528 59.6365 78.2461 59.8872 78.0328 60.0899C77.8301 60.2819 77.5688 60.3779 77.2488 60.3779ZM76.4008 69.8179V61.8819H78.0968V69.8179H76.4008ZM80.3357 69.8179V61.8819H81.8397L81.9677 63.2739C82.213 62.7832 82.5703 62.3992 83.0397 62.1219C83.5197 61.8339 84.069 61.6899 84.6877 61.6899C85.6477 61.6899 86.3997 61.9885 86.9437 62.5859C87.4983 63.1832 87.7757 64.0739 87.7757 65.2579V69.8179H86.0957V65.4339C86.0957 63.8979 85.4663 63.1299 84.2077 63.1299C83.5783 63.1299 83.0557 63.3539 82.6397 63.8019C82.2343 64.2499 82.0317 64.8899 82.0317 65.7219V69.8179H80.3357ZM90.7332 60.3779C90.4132 60.3779 90.1465 60.2819 89.9332 60.0899C89.7305 59.8872 89.6292 59.6365 89.6292 59.3379C89.6292 59.0392 89.7305 58.7939 89.9332 58.6019C90.1465 58.3992 90.4132 58.2979 90.7332 58.2979C91.0532 58.2979 91.3145 58.3992 91.5172 58.6019C91.7305 58.7939 91.8372 59.0392 91.8372 59.3379C91.8372 59.6365 91.7305 59.8872 91.5172 60.0899C91.3145 60.2819 91.0532 60.3779 90.7332 60.3779ZM89.8852 69.8179V61.8819H91.5812V69.8179H89.8852ZM93.82 69.8179V61.8819H95.324L95.452 63.2739C95.6974 62.7832 96.0547 62.3992 96.524 62.1219C97.004 61.8339 97.5534 61.6899 98.172 61.6899C99.132 61.6899 99.884 61.9885 100.428 62.5859C100.983 63.1832 101.26 64.0739 101.26 65.2579V69.8179H99.58V65.4339C99.58 63.8979 98.9507 63.1299 97.692 63.1299C97.0627 63.1299 96.54 63.3539 96.124 63.8019C95.7187 64.2499 95.516 64.8899 95.516 65.7219V69.8179H93.82ZM106.506 67.3859C106.09 67.3859 105.706 67.3379 105.354 67.2419L104.666 67.9139C104.783 67.9885 104.927 68.0525 105.098 68.1059C105.268 68.1592 105.508 68.2072 105.818 68.2499C106.127 68.2925 106.548 68.3352 107.082 68.3779C108.138 68.4739 108.9 68.7299 109.37 69.1459C109.839 69.5512 110.074 70.0952 110.074 70.7779C110.074 71.2472 109.946 71.6899 109.69 72.1059C109.444 72.5325 109.055 72.8739 108.522 73.1299C107.999 73.3965 107.327 73.5299 106.506 73.5299C105.396 73.5299 104.495 73.3165 103.802 72.8899C103.119 72.4739 102.778 71.8392 102.778 70.9859C102.778 70.6552 102.863 70.3245 103.034 69.9939C103.215 69.6739 103.498 69.3699 103.882 69.0819C103.658 68.9859 103.46 68.8845 103.29 68.7779C103.13 68.6605 102.986 68.5432 102.858 68.4259V68.0419L104.234 66.6339C103.615 66.1005 103.306 65.4019 103.306 64.5379C103.306 64.0152 103.428 63.5405 103.674 63.1139C103.93 62.6765 104.298 62.3299 104.778 62.0739C105.258 61.8179 105.834 61.6899 106.506 61.6899C106.954 61.6899 107.37 61.7539 107.754 61.8819H110.714V63.0019L109.306 63.0819C109.562 63.5192 109.69 64.0045 109.69 64.5379C109.69 65.0712 109.562 65.5512 109.306 65.9779C109.06 66.4045 108.698 66.7459 108.218 67.0019C107.748 67.2579 107.178 67.3859 106.506 67.3859ZM106.506 66.0579C106.996 66.0579 107.391 65.9299 107.69 65.6739C107.999 65.4072 108.154 65.0339 108.154 64.5539C108.154 64.0632 107.999 63.6899 107.69 63.4339C107.391 63.1779 106.996 63.0499 106.506 63.0499C106.004 63.0499 105.599 63.1779 105.29 63.4339C104.991 63.6899 104.842 64.0632 104.842 64.5539C104.842 65.0339 104.991 65.4072 105.29 65.6739C105.599 65.9299 106.004 66.0579 106.506 66.0579ZM104.378 70.8259C104.378 71.2845 104.58 71.6259 104.986 71.8499C105.391 72.0845 105.898 72.2019 106.506 72.2019C107.092 72.2019 107.567 72.0739 107.93 71.8179C108.292 71.5725 108.474 71.2419 108.474 70.8259C108.474 70.5165 108.351 70.2499 108.106 70.0259C107.86 69.8125 107.396 69.6792 106.714 69.6259C106.202 69.5939 105.748 69.5459 105.354 69.4819C104.98 69.6845 104.724 69.9032 104.586 70.1379C104.447 70.3725 104.378 70.6019 104.378 70.8259ZM116.322 69.8179V58.6179H120.178C121.063 58.6179 121.788 58.7672 122.354 59.0659C122.93 59.3645 123.356 59.7699 123.634 60.2819C123.911 60.7832 124.05 61.3432 124.05 61.9619C124.05 62.6552 123.863 63.2845 123.49 63.8499C123.127 64.4152 122.556 64.8205 121.778 65.0659L124.162 69.8179H122.194L120.018 65.3059H118.018V69.8179H116.322ZM118.018 64.0259H120.082C120.85 64.0259 121.41 63.8392 121.762 63.4659C122.124 63.0925 122.306 62.6072 122.306 62.0099C122.306 61.4125 122.13 60.9379 121.778 60.5859C121.426 60.2232 120.855 60.0419 120.066 60.0419H118.018V64.0259ZM129.22 70.0099C128.462 70.0099 127.78 69.8392 127.172 69.4979C126.574 69.1459 126.1 68.6605 125.748 68.0419C125.396 67.4125 125.22 66.6819 125.22 65.8499C125.22 65.0179 125.396 64.2925 125.748 63.6739C126.11 63.0445 126.596 62.5592 127.204 62.2179C127.812 61.8659 128.489 61.6899 129.236 61.6899C129.993 61.6899 130.67 61.8659 131.268 62.2179C131.876 62.5592 132.356 63.0445 132.708 63.6739C133.07 64.2925 133.252 65.0179 133.252 65.8499C133.252 66.6819 133.07 67.4125 132.708 68.0419C132.356 68.6605 131.876 69.1459 131.268 69.4979C130.66 69.8392 129.977 70.0099 129.22 70.0099ZM129.22 68.5539C129.625 68.5539 129.998 68.4525 130.34 68.2499C130.692 68.0472 130.974 67.7485 131.188 67.3539C131.401 66.9485 131.508 66.4472 131.508 65.8499C131.508 65.2525 131.401 64.7565 131.188 64.3619C130.985 63.9565 130.708 63.6525 130.356 63.4499C130.014 63.2472 129.641 63.1459 129.236 63.1459C128.83 63.1459 128.452 63.2472 128.1 63.4499C127.758 63.6525 127.481 63.9565 127.268 64.3619C127.054 64.7565 126.948 65.2525 126.948 65.8499C126.948 66.4472 127.054 66.9485 127.268 67.3539C127.481 67.7485 127.758 68.0472 128.1 68.2499C128.441 68.4525 128.814 68.5539 129.22 68.5539ZM138.798 70.0099C138.04 70.0099 137.358 69.8392 136.75 69.4979C136.152 69.1459 135.678 68.6605 135.326 68.0419C134.974 67.4125 134.798 66.6819 134.798 65.8499C134.798 65.0179 134.974 64.2925 135.326 63.6739C135.688 63.0445 136.174 62.5592 136.782 62.2179C137.39 61.8659 138.067 61.6899 138.814 61.6899C139.571 61.6899 140.248 61.8659 140.846 62.2179C141.454 62.5592 141.934 63.0445 142.286 63.6739C142.648 64.2925 142.83 65.0179 142.83 65.8499C142.83 66.6819 142.648 67.4125 142.286 68.0419C141.934 68.6605 141.454 69.1459 140.846 69.4979C140.238 69.8392 139.555 70.0099 138.798 70.0099ZM138.798 68.5539C139.203 68.5539 139.576 68.4525 139.918 68.2499C140.27 68.0472 140.552 67.7485 140.766 67.3539C140.979 66.9485 141.086 66.4472 141.086 65.8499C141.086 65.2525 140.979 64.7565 140.766 64.3619C140.563 63.9565 140.286 63.6525 139.934 63.4499C139.592 63.2472 139.219 63.1459 138.814 63.1459C138.408 63.1459 138.03 63.2472 137.678 63.4499C137.336 63.6525 137.059 63.9565 136.846 64.3619C136.632 64.7565 136.526 65.2525 136.526 65.8499C136.526 66.4472 136.632 66.9485 136.846 67.3539C137.059 67.7485 137.336 68.0472 137.678 68.2499C138.019 68.4525 138.392 68.5539 138.798 68.5539ZM144.664 69.8179V61.8819H146.168L146.312 63.0019C146.568 62.5965 146.904 62.2765 147.32 62.0419C147.746 61.8072 148.237 61.6899 148.792 61.6899C150.05 61.6899 150.925 62.1859 151.416 63.1779C151.704 62.7192 152.088 62.3565 152.568 62.0899C153.058 61.8232 153.586 61.6899 154.152 61.6899C155.144 61.6899 155.922 61.9885 156.488 62.5859C157.053 63.1832 157.336 64.0739 157.336 65.2579V69.8179H155.64V65.4339C155.64 63.8979 155.053 63.1299 153.88 63.1299C153.282 63.1299 152.792 63.3539 152.408 63.8019C152.034 64.2499 151.848 64.8899 151.848 65.7219V69.8179H150.152V65.4339C150.152 63.8979 149.56 63.1299 148.376 63.1299C147.789 63.1299 147.304 63.3539 146.92 63.8019C146.546 64.2499 146.36 64.8899 146.36 65.7219V69.8179H144.664Z" fill="#808080"/>
<g clip-path="url(#clip0_2551_214)">
<path d="M119.087 26.3104C119.368 26.3104 119.596 26.0827 119.596 25.8018V24.1704C119.596 23.8895 119.368 23.6618 119.087 23.6618L118.364 23.6662L115.988 26.3104H119.087Z" fill="#666666"/>
<path d="M103.843 26.3102H106.966L104.55 23.6617H103.843C103.562 23.6617 103.334 23.8894 103.334 24.1703V25.8016C103.334 26.0825 103.562 26.3102 103.843 26.3102Z" fill="#666666"/>
<path d="M111.757 28.933L116.471 23.6618H106.461L111.252 28.935C111.387 29.0845 111.623 29.0836 111.757 28.933Z" fill="#666666"/>
<path d="M113.085 36.351H112.209V30.4323C111.999 30.5536 111.759 30.6198 111.512 30.6208C111.51 30.6208 111.508 30.6208 111.506 30.6208C111.257 30.6208 111.015 30.5545 110.803 30.4323V36.351H109.848C109.459 36.351 109.145 36.6658 109.145 37.0541C109.145 37.4425 109.459 37.7573 109.848 37.7573H113.085C113.473 37.7573 113.788 37.4425 113.788 37.0541C113.788 36.6658 113.473 36.351 113.085 36.351Z" fill="#666666"/>
<path d="M105.396 28.2667H100.873V19.9315C100.873 19.5432 100.558 19.2283 100.17 19.2283C99.7816 19.2283 99.4668 19.5432 99.4668 19.9315V37.1104C99.4668 37.4988 99.7816 37.8136 100.17 37.8136C100.558 37.8136 100.873 37.4988 100.873 37.1104V31.8581H105.986V37.1104C105.986 37.4988 106.301 37.8136 106.689 37.8136C107.077 37.8136 107.392 37.4988 107.392 37.1104V30.2624C107.392 29.1619 106.497 28.2667 105.396 28.2667Z" fill="#666666"/>
<path d="M122.764 19.2283C122.376 19.2283 122.061 19.5432 122.061 19.9315V28.2667H117.642C116.542 28.2667 115.646 29.162 115.646 30.2624V37.1104C115.646 37.4988 115.961 37.8136 116.35 37.8136C116.738 37.8136 117.053 37.4988 117.053 37.1104V31.8569H122.061V37.1104C122.061 37.4988 122.376 37.8136 122.764 37.8136C123.152 37.8136 123.467 37.4988 123.467 37.1104V19.9315C123.467 19.5432 123.152 19.2283 122.764 19.2283Z" fill="#666666"/>
</g>
<defs>
<clipPath id="clip0_2551_214">
<rect width="24" height="24" fill="white" transform="translate(99.4668 16.521)"/>
</clipPath>
</defs>
</svg>
