<svg width="44" height="22" viewBox="0 0 44 22" fill="none" xmlns="http://www.w3.org/2000/svg">
<path d="M5.3025 21.9538V20.1058C3.7345 19.9298 2.4785 19.3778 1.5345 18.4498C0.5905 17.5218 0.1105 16.3058 0.0945 14.8018H2.7825C2.7985 15.5538 3.0225 16.2178 3.4545 16.7938C3.8865 17.3538 4.5025 17.7298 5.3025 17.9218V12.1378C5.1745 12.1058 5.0385 12.0658 4.8945 12.0178C4.7665 11.9698 4.6305 11.9218 4.4865 11.8738C3.1905 11.4418 2.2145 10.8818 1.5585 10.1938C0.9185 9.50584 0.5985 8.60184 0.5985 7.48184C0.5825 6.16984 1.0065 5.09784 1.8705 4.26584C2.7345 3.43384 3.8785 2.94584 5.3025 2.80184V0.881845H6.9345V2.82584C8.3265 2.98584 9.4465 3.48984 10.2945 4.33784C11.1425 5.18584 11.5745 6.24984 11.5905 7.52984H8.9025C8.8865 7.00184 8.7105 6.50584 8.3745 6.04184C8.0545 5.56184 7.5745 5.23384 6.9345 5.05784V10.1938C7.0625 10.2418 7.1905 10.2898 7.3185 10.3378C7.4465 10.3698 7.5745 10.4098 7.7025 10.4578C8.5345 10.7298 9.2785 11.0578 9.9345 11.4418C10.5905 11.8258 11.1105 12.3298 11.4945 12.9538C11.8945 13.5778 12.0945 14.3698 12.0945 15.3298C12.0945 16.1298 11.9025 16.8818 11.5185 17.5858C11.1345 18.2738 10.5585 18.8498 9.7905 19.3138C9.0225 19.7778 8.0705 20.0498 6.9345 20.1298V21.9538H5.3025ZM3.2385 7.26584C3.2385 7.90584 3.4225 8.40184 3.7905 8.75384C4.1585 9.08984 4.6625 9.38584 5.3025 9.64184V4.98584C4.6945 5.09784 4.1985 5.35384 3.8145 5.75384C3.4305 6.13784 3.2385 6.64184 3.2385 7.26584ZM9.4065 15.4978C9.4065 14.7138 9.1745 14.1218 8.7105 13.7218C8.2465 13.3058 7.6545 12.9618 6.9345 12.6898V17.9698C7.7185 17.8738 8.3265 17.6018 8.7585 17.1538C9.1905 16.7058 9.4065 16.1538 9.4065 15.4978ZM22.5319 19.8658V16.5058H14.1079V14.4898L22.1239 3.06584H25.0519V14.2978H27.4039V16.5058H25.0519V19.8658H22.5319ZM16.8679 14.2978H22.6759V5.87384L16.8679 14.2978ZM36.549 20.1538C35.029 20.1538 33.717 19.7938 32.613 19.0738C31.525 18.3378 30.685 17.3218 30.093 16.0258C29.517 14.7138 29.229 13.1938 29.229 11.4658C29.229 9.73784 29.517 8.22584 30.093 6.92984C30.685 5.61784 31.525 4.60184 32.613 3.88184C33.717 3.14584 35.029 2.77784 36.549 2.77784C38.069 2.77784 39.373 3.14584 40.461 3.88184C41.549 4.60184 42.381 5.61784 42.957 6.92984C43.549 8.22584 43.845 9.73784 43.845 11.4658C43.845 13.1938 43.549 14.7138 42.957 16.0258C42.381 17.3218 41.549 18.3378 40.461 19.0738C39.373 19.7938 38.069 20.1538 36.549 20.1538ZM36.549 17.8738C37.461 17.8738 38.269 17.6178 38.973 17.1058C39.693 16.5938 40.253 15.8578 40.653 14.8978C41.053 13.9378 41.253 12.7938 41.253 11.4658C41.253 10.1378 41.053 8.99384 40.653 8.03384C40.253 7.07384 39.693 6.33784 38.973 5.82584C38.269 5.31384 37.461 5.05784 36.549 5.05784C35.621 5.05784 34.805 5.31384 34.101 5.82584C33.397 6.33784 32.845 7.07384 32.445 8.03384C32.045 8.99384 31.845 10.1378 31.845 11.4658C31.845 12.7938 32.045 13.9378 32.445 14.8978C32.845 15.8578 33.397 16.5938 34.101 17.1058C34.805 17.6178 35.621 17.8738 36.549 17.8738Z" fill="#154444"/>
</svg>
