<svg width="223" height="91" viewBox="0 0 223 91" fill="none" xmlns="http://www.w3.org/2000/svg">
<rect x="1.2168" y="0.836426" width="220.5" height="88.5" stroke="#D9DCE5" stroke-width="1.5"/>
<path d="M83.6028 69.4348V58.2348H85.2988V63.0348H90.7228V58.2348H92.4188V69.4348H90.7228V64.4268H85.2988V69.4348H83.6028ZM97.3205 69.6268C96.6485 69.6268 96.0939 69.5148 95.6565 69.2908C95.2192 69.0668 94.8939 68.7735 94.6805 68.4108C94.4672 68.0375 94.3605 67.6321 94.3605 67.1948C94.3605 66.4268 94.6592 65.8188 95.2565 65.3708C95.8539 64.9228 96.7072 64.6988 97.8165 64.6988H99.8965V64.5548C99.8965 63.9361 99.7259 63.4721 99.3845 63.1628C99.0539 62.8535 98.6219 62.6988 98.0885 62.6988C97.6192 62.6988 97.2085 62.8161 96.8565 63.0508C96.5152 63.2748 96.3072 63.6108 96.2325 64.0588H94.5365C94.5899 63.4828 94.7819 62.9921 95.1125 62.5868C95.4539 62.1708 95.8805 61.8561 96.3925 61.6428C96.9152 61.4188 97.4859 61.3068 98.1045 61.3068C99.2139 61.3068 100.073 61.6001 100.681 62.1868C101.289 62.7628 101.593 63.5521 101.593 64.5548V69.4348H100.121L99.9765 68.0748C99.7525 68.5121 99.4272 68.8801 99.0005 69.1788C98.5739 69.4775 98.0139 69.6268 97.3205 69.6268ZM97.6565 68.2508C98.1152 68.2508 98.4992 68.1441 98.8085 67.9308C99.1285 67.7068 99.3739 67.4135 99.5445 67.0508C99.7259 66.6881 99.8379 66.2881 99.8805 65.8508H97.9925C97.3205 65.8508 96.8405 65.9681 96.5525 66.2028C96.2752 66.4375 96.1365 66.7308 96.1365 67.0828C96.1365 67.4455 96.2699 67.7335 96.5365 67.9468C96.8139 68.1495 97.1872 68.2508 97.6565 68.2508ZM103.57 69.4348V57.9148H105.266V69.4348H103.57ZM107.414 69.4348V57.9148H109.11V69.4348H107.414ZM112.842 69.4348L110.506 61.4988H112.202L113.738 67.4828L115.466 61.4988H117.354L119.082 67.4828L120.618 61.4988H122.314L119.978 69.4348H118.234L116.41 63.1948L114.586 69.4348H112.842ZM126.039 69.6268C125.367 69.6268 124.813 69.5148 124.375 69.2908C123.938 69.0668 123.613 68.7735 123.399 68.4108C123.186 68.0375 123.079 67.6321 123.079 67.1948C123.079 66.4268 123.378 65.8188 123.975 65.3708C124.573 64.9228 125.426 64.6988 126.535 64.6988H128.615V64.5548C128.615 63.9361 128.445 63.4721 128.103 63.1628C127.773 62.8535 127.341 62.6988 126.807 62.6988C126.338 62.6988 125.927 62.8161 125.575 63.0508C125.234 63.2748 125.026 63.6108 124.951 64.0588H123.255C123.309 63.4828 123.501 62.9921 123.831 62.5868C124.173 62.1708 124.599 61.8561 125.111 61.6428C125.634 61.4188 126.205 61.3068 126.823 61.3068C127.933 61.3068 128.791 61.6001 129.399 62.1868C130.007 62.7628 130.311 63.5521 130.311 64.5548V69.4348H128.839L128.695 68.0748C128.471 68.5121 128.146 68.8801 127.719 69.1788C127.293 69.4775 126.733 69.6268 126.039 69.6268ZM126.375 68.2508C126.834 68.2508 127.218 68.1441 127.527 67.9308C127.847 67.7068 128.093 67.4135 128.263 67.0508C128.445 66.6881 128.557 66.2881 128.599 65.8508H126.711C126.039 65.8508 125.559 65.9681 125.271 66.2028C124.994 66.4375 124.855 66.7308 124.855 67.0828C124.855 67.4455 124.989 67.7335 125.255 67.9468C125.533 68.1495 125.906 68.2508 126.375 68.2508ZM132.967 72.9548L134.871 68.7788H134.407L131.271 61.4988H133.111L135.543 67.3708L138.087 61.4988H139.879L134.759 72.9548H132.967Z" fill="#808080"/>
<g clip-path="url(#clip0_2551_248)">
<path d="M123.092 23.0513H99.8418C99.6343 23.0513 99.4668 22.8837 99.4668 22.6763V21.1755C99.4668 20.9681 99.6343 20.8005 99.8418 20.8005H123.092C123.299 20.8005 123.467 20.9681 123.467 21.1755V22.6763C123.467 22.8837 123.299 23.0513 123.092 23.0513ZM100.217 22.3013H122.717V21.5505H100.217V22.3013Z" fill="#666666"/>
<path d="M100.217 34.683C100.009 34.683 99.8418 34.5155 99.8418 34.308V22.7431C99.8418 22.5356 100.009 22.3681 100.217 22.3681C100.424 22.3681 100.592 22.5356 100.592 22.7431V34.308C100.592 34.5155 100.424 34.683 100.217 34.683Z" fill="#666666"/>
<path d="M101.342 34.683C101.134 34.683 100.967 34.5155 100.967 34.308V22.7431C100.967 22.5356 101.134 22.3681 101.342 22.3681C101.549 22.3681 101.717 22.5356 101.717 22.7431V34.308C101.717 34.5155 101.549 34.683 101.342 34.683Z" fill="#666666"/>
<path d="M121.592 34.683C121.384 34.683 121.217 34.5155 121.217 34.308V22.7431C121.217 22.5356 121.384 22.3681 121.592 22.3681C121.799 22.3681 121.967 22.5356 121.967 22.7431V34.308C121.967 34.5155 121.799 34.683 121.592 34.683Z" fill="#666666"/>
<path d="M122.717 34.683C122.509 34.683 122.342 34.5155 122.342 34.308V22.7431C122.342 22.5356 122.509 22.3681 122.717 22.3681C122.924 22.3681 123.092 22.5356 123.092 22.7431V34.308C123.092 34.5155 122.924 34.683 122.717 34.683Z" fill="#666666"/>
<path d="M101.342 34.683H100.217C100.009 34.683 99.8418 34.5155 99.8418 34.308C99.8418 34.1006 100.009 33.933 100.217 33.933H101.342C101.549 33.933 101.717 34.1006 101.717 34.308C101.717 34.5155 101.549 34.683 101.342 34.683Z" fill="#666666"/>
<path d="M122.717 34.683H121.592C121.384 34.683 121.217 34.5155 121.217 34.308C121.217 34.1006 121.384 33.933 121.592 33.933H122.717C122.924 33.933 123.092 34.1006 123.092 34.308C123.092 34.5155 122.924 34.683 122.717 34.683Z" fill="#666666"/>
<path d="M121.592 28.3058H101.342C101.134 28.3058 100.967 28.1381 100.967 27.9308C100.967 27.7234 101.134 27.5558 101.342 27.5558H121.592C121.799 27.5558 121.967 27.7234 121.967 27.9308C121.967 28.1381 121.799 28.3058 121.592 28.3058Z" fill="#666666"/>
<path d="M121.592 29.4316H101.342C101.134 29.4316 100.967 29.2639 100.967 29.0566C100.967 28.8491 101.134 28.6816 101.342 28.6816H121.592C121.799 28.6816 121.967 28.8491 121.967 29.0566C121.967 29.2639 121.799 29.4316 121.592 29.4316Z" fill="#666666"/>
<path d="M102.842 28.3066C102.634 28.3066 102.467 28.1389 102.467 27.9316C102.467 26.8976 103.308 26.0566 104.341 26.0566C104.549 26.0566 104.716 26.2241 104.716 26.4316C104.716 26.6389 104.549 26.8066 104.341 26.8066C103.722 26.8066 103.217 27.3112 103.217 27.9316C103.217 28.1389 103.049 28.3066 102.842 28.3066Z" fill="#666666"/>
<path d="M106.591 28.3066C106.384 28.3066 106.216 28.1389 106.216 27.9316C106.216 27.3112 105.712 26.8066 105.092 26.8066C104.885 26.8066 104.717 26.6389 104.717 26.4316C104.717 26.2241 104.885 26.0566 105.092 26.0566C106.126 26.0566 106.966 26.8976 106.966 27.9316C106.966 28.1389 106.799 28.3066 106.591 28.3066Z" fill="#666666"/>
<path d="M103.217 27.3147C103.009 27.3147 102.842 27.147 102.842 26.9397V24.9316C102.842 24.7241 103.009 24.5566 103.217 24.5566C103.424 24.5566 103.592 24.7241 103.592 24.9316V26.9397C103.592 27.147 103.424 27.3147 103.217 27.3147Z" fill="#666666"/>
<path d="M106.215 27.3147C106.007 27.3147 105.84 27.147 105.84 26.9397V24.9316C105.84 24.7241 106.007 24.5566 106.215 24.5566C106.422 24.5566 106.59 24.7241 106.59 24.9316V26.9397C106.59 27.147 106.422 27.3147 106.215 27.3147Z" fill="#666666"/>
<path d="M103.967 25.6823C103.759 25.6823 103.592 25.5146 103.592 25.3073V24.1816C103.592 23.9741 103.759 23.8066 103.967 23.8066C104.174 23.8066 104.342 23.9741 104.342 24.1816V25.3073C104.342 25.5146 104.174 25.6823 103.967 25.6823Z" fill="#666666"/>
<path d="M105.467 24.5566H103.967C103.759 24.5566 103.592 24.3889 103.592 24.1816C103.592 23.9741 103.759 23.8066 103.967 23.8066H105.467C105.674 23.8066 105.842 23.9741 105.842 24.1816C105.842 24.3889 105.674 24.5566 105.467 24.5566Z" fill="#666666"/>
<path d="M105.467 25.6823C105.259 25.6823 105.092 25.5146 105.092 25.3073V24.1816C105.092 23.9741 105.259 23.8066 105.467 23.8066C105.674 23.8066 105.842 23.9741 105.842 24.1816V25.3073C105.842 25.5146 105.674 25.6823 105.467 25.6823Z" fill="#666666"/>
<path d="M103.968 25.3066H103.217C103.009 25.3066 102.842 25.1389 102.842 24.9316C102.842 24.7241 103.009 24.5566 103.217 24.5566H103.968C104.175 24.5566 104.343 24.7241 104.343 24.9316C104.343 25.1389 104.175 25.3066 103.968 25.3066Z" fill="#666666"/>
<path d="M106.215 25.3066H105.467C105.259 25.3066 105.092 25.1389 105.092 24.9316C105.092 24.7241 105.259 24.5566 105.467 24.5566H106.215C106.423 24.5566 106.59 24.7241 106.59 24.9316C106.59 25.1389 106.423 25.3066 106.215 25.3066Z" fill="#666666"/>
<path d="M105.091 26.8066H104.34C104.132 26.8066 103.965 26.6389 103.965 26.4316C103.965 26.2241 104.132 26.0566 104.34 26.0566H105.091C105.299 26.0566 105.466 26.2241 105.466 26.4316C105.466 26.6389 105.299 26.8066 105.091 26.8066Z" fill="#666666"/>
<path d="M107.717 28.3066C107.509 28.3066 107.342 28.1389 107.342 27.9316C107.342 26.8976 108.183 26.0566 109.216 26.0566C109.424 26.0566 109.591 26.2241 109.591 26.4316C109.591 26.6389 109.424 26.8066 109.216 26.8066C108.597 26.8066 108.092 27.3112 108.092 27.9316C108.092 28.1389 107.924 28.3066 107.717 28.3066Z" fill="#666666"/>
<path d="M111.466 28.3066C111.259 28.3066 111.091 28.1389 111.091 27.9316C111.091 27.3112 110.587 26.8066 109.967 26.8066C109.76 26.8066 109.592 26.6389 109.592 26.4316C109.592 26.2241 109.76 26.0566 109.967 26.0566C111.001 26.0566 111.841 26.8976 111.841 27.9316C111.841 28.1389 111.674 28.3066 111.466 28.3066Z" fill="#666666"/>
<path d="M108.092 27.3147C107.884 27.3147 107.717 27.147 107.717 26.9397V24.9316C107.717 24.7241 107.884 24.5566 108.092 24.5566C108.299 24.5566 108.467 24.7241 108.467 24.9316V26.9397C108.467 27.147 108.299 27.3147 108.092 27.3147Z" fill="#666666"/>
<path d="M111.09 27.3147C110.882 27.3147 110.715 27.147 110.715 26.9397V24.9316C110.715 24.7241 110.882 24.5566 111.09 24.5566C111.297 24.5566 111.465 24.7241 111.465 24.9316V26.9397C111.465 27.147 111.297 27.3147 111.09 27.3147Z" fill="#666666"/>
<path d="M108.842 25.6823C108.634 25.6823 108.467 25.5146 108.467 25.3073V24.1816C108.467 23.9741 108.634 23.8066 108.842 23.8066C109.049 23.8066 109.217 23.9741 109.217 24.1816V25.3073C109.217 25.5146 109.049 25.6823 108.842 25.6823Z" fill="#666666"/>
<path d="M110.342 24.5566H108.842C108.634 24.5566 108.467 24.3889 108.467 24.1816C108.467 23.9741 108.634 23.8066 108.842 23.8066H110.342C110.549 23.8066 110.717 23.9741 110.717 24.1816C110.717 24.3889 110.549 24.5566 110.342 24.5566Z" fill="#666666"/>
<path d="M110.342 25.6823C110.134 25.6823 109.967 25.5146 109.967 25.3073V24.1816C109.967 23.9741 110.134 23.8066 110.342 23.8066C110.549 23.8066 110.717 23.9741 110.717 24.1816V25.3073C110.717 25.5146 110.549 25.6823 110.342 25.6823Z" fill="#666666"/>
<path d="M108.843 25.3066H108.092C107.884 25.3066 107.717 25.1389 107.717 24.9316C107.717 24.7241 107.884 24.5566 108.092 24.5566H108.843C109.05 24.5566 109.218 24.7241 109.218 24.9316C109.218 25.1389 109.05 25.3066 108.843 25.3066Z" fill="#666666"/>
<path d="M111.09 25.3066H110.342C110.134 25.3066 109.967 25.1389 109.967 24.9316C109.967 24.7241 110.134 24.5566 110.342 24.5566H111.09C111.298 24.5566 111.465 24.7241 111.465 24.9316C111.465 25.1389 111.298 25.3066 111.09 25.3066Z" fill="#666666"/>
<path d="M109.966 26.8066H109.215C109.007 26.8066 108.84 26.6389 108.84 26.4316C108.84 26.2241 109.007 26.0566 109.215 26.0566H109.966C110.174 26.0566 110.341 26.2241 110.341 26.4316C110.341 26.6389 110.174 26.8066 109.966 26.8066Z" fill="#666666"/>
<path d="M111.475 33.9323C111.267 33.9323 111.1 33.7646 111.1 33.5573C111.1 32.9366 111.605 32.4316 112.225 32.4316C112.433 32.4316 112.6 32.5991 112.6 32.8066C112.6 33.0139 112.433 33.1816 112.225 33.1816C112.018 33.1816 111.85 33.3499 111.85 33.5573C111.85 33.7646 111.682 33.9323 111.475 33.9323Z" fill="#666666"/>
<path d="M115.227 33.9323C115.019 33.9323 114.852 33.7646 114.852 33.5573C114.852 33.3502 114.684 33.1823 114.477 33.1823C114.269 33.1823 114.102 33.0146 114.102 32.8073C114.102 32.5999 114.269 32.4323 114.477 32.4323C115.097 32.4323 115.602 32.937 115.602 33.5573C115.602 33.7646 115.434 33.9323 115.227 33.9323Z" fill="#666666"/>
<path d="M115.226 34.683H111.475C111.267 34.683 111.1 34.5155 111.1 34.308C111.1 34.1006 111.267 33.933 111.475 33.933H115.226C115.434 33.933 115.601 34.1006 115.601 34.308C115.601 34.5155 115.433 34.683 115.226 34.683Z" fill="#666666"/>
<path d="M114.506 33.1816H112.195C111.988 33.1816 111.82 33.0139 111.82 32.8066C111.82 32.5991 111.988 32.4316 112.195 32.4316H114.506C114.714 32.4316 114.881 32.5991 114.881 32.8066C114.881 33.0139 114.714 33.1816 114.506 33.1816Z" fill="#666666"/>
<path d="M112.225 33.1816C112.017 33.1816 111.85 33.0139 111.85 32.8066V30.5573C111.85 30.3499 112.017 30.1823 112.225 30.1823C112.432 30.1823 112.6 30.3499 112.6 30.5573V32.8066C112.6 33.0139 112.432 33.1816 112.225 33.1816Z" fill="#666666"/>
<path d="M114.477 33.1823C114.269 33.1823 114.102 33.0146 114.102 32.8073V30.5573C114.102 30.3499 114.269 30.1823 114.477 30.1823C114.684 30.1823 114.852 30.3499 114.852 30.5573V32.8073C114.852 33.0146 114.684 33.1823 114.477 33.1823Z" fill="#666666"/>
<path d="M111.475 34.683C111.267 34.683 111.1 34.5155 111.1 34.308V33.5573C111.1 33.3499 111.267 33.1823 111.475 33.1823C111.682 33.1823 111.85 33.3499 111.85 33.5573V34.308C111.85 34.5155 111.682 34.683 111.475 34.683Z" fill="#666666"/>
<path d="M115.227 34.683C115.019 34.683 114.852 34.5155 114.852 34.308V33.5573C114.852 33.3499 115.019 33.1823 115.227 33.1823C115.434 33.1823 115.602 33.3499 115.602 33.5573V34.308C115.602 34.5155 115.434 34.683 115.227 34.683Z" fill="#666666"/>
<path d="M114.476 30.9323H112.225C112.017 30.9323 111.85 30.7646 111.85 30.5573C111.85 30.3499 112.017 30.1823 112.225 30.1823H114.476C114.684 30.1823 114.851 30.3499 114.851 30.5573C114.851 30.7646 114.684 30.9323 114.476 30.9323Z" fill="#666666"/>
<path d="M114.851 32.0573H111.85C111.642 32.0573 111.475 31.8896 111.475 31.6823C111.475 31.4749 111.642 31.3073 111.85 31.3073H114.851C115.058 31.3073 115.226 31.4749 115.226 31.6823C115.226 31.8896 115.058 32.0573 114.851 32.0573Z" fill="#666666"/>
<path d="M116.35 33.9323C116.142 33.9323 115.975 33.7646 115.975 33.5573C115.975 32.9366 116.48 32.4316 117.1 32.4316C117.308 32.4316 117.475 32.5991 117.475 32.8066C117.475 33.0139 117.308 33.1816 117.1 33.1816C116.893 33.1816 116.725 33.3499 116.725 33.5573C116.725 33.7646 116.557 33.9323 116.35 33.9323Z" fill="#666666"/>
<path d="M120.102 33.9323C119.894 33.9323 119.727 33.7646 119.727 33.5573C119.727 33.3502 119.559 33.1823 119.352 33.1823C119.144 33.1823 118.977 33.0146 118.977 32.8073C118.977 32.5999 119.144 32.4323 119.352 32.4323C119.972 32.4323 120.477 32.937 120.477 33.5573C120.477 33.7646 120.309 33.9323 120.102 33.9323Z" fill="#666666"/>
<path d="M120.101 34.683H116.35C116.142 34.683 115.975 34.5155 115.975 34.308C115.975 34.1006 116.142 33.933 116.35 33.933H120.101C120.309 33.933 120.476 34.1006 120.476 34.308C120.476 34.5155 120.308 34.683 120.101 34.683Z" fill="#666666"/>
<path d="M119.381 33.1816H117.07C116.863 33.1816 116.695 33.0139 116.695 32.8066C116.695 32.5991 116.863 32.4316 117.07 32.4316H119.381C119.589 32.4316 119.756 32.5991 119.756 32.8066C119.756 33.0139 119.589 33.1816 119.381 33.1816Z" fill="#666666"/>
<path d="M117.1 33.1816C116.892 33.1816 116.725 33.0139 116.725 32.8066V30.5573C116.725 30.3499 116.892 30.1823 117.1 30.1823C117.307 30.1823 117.475 30.3499 117.475 30.5573V32.8066C117.475 33.0139 117.307 33.1816 117.1 33.1816Z" fill="#666666"/>
<path d="M119.352 33.1823C119.144 33.1823 118.977 33.0146 118.977 32.8073V30.5573C118.977 30.3499 119.144 30.1823 119.352 30.1823C119.559 30.1823 119.727 30.3499 119.727 30.5573V32.8073C119.727 33.0146 119.559 33.1823 119.352 33.1823Z" fill="#666666"/>
<path d="M116.35 34.683C116.142 34.683 115.975 34.5155 115.975 34.308V33.5573C115.975 33.3499 116.142 33.1823 116.35 33.1823C116.557 33.1823 116.725 33.3499 116.725 33.5573V34.308C116.725 34.5155 116.557 34.683 116.35 34.683Z" fill="#666666"/>
<path d="M120.102 34.683C119.894 34.683 119.727 34.5155 119.727 34.308V33.5573C119.727 33.3499 119.894 33.1823 120.102 33.1823C120.309 33.1823 120.477 33.3499 120.477 33.5573V34.308C120.477 34.5155 120.309 34.683 120.102 34.683Z" fill="#666666"/>
<path d="M119.351 30.9323H117.1C116.892 30.9323 116.725 30.7646 116.725 30.5573C116.725 30.3499 116.892 30.1823 117.1 30.1823H119.351C119.559 30.1823 119.726 30.3499 119.726 30.5573C119.726 30.7646 119.559 30.9323 119.351 30.9323Z" fill="#666666"/>
<path d="M119.726 32.0573H116.725C116.517 32.0573 116.35 31.8896 116.35 31.6823C116.35 31.4749 116.517 31.3073 116.725 31.3073H119.726C119.933 31.3073 120.101 31.4749 120.101 31.6823C120.101 31.8896 119.933 32.0573 119.726 32.0573Z" fill="#666666"/>
</g>
<defs>
<clipPath id="clip0_2551_248">
<rect width="24" height="24" fill="white" transform="translate(99.4668 15.738)"/>
</clipPath>
</defs>
</svg>
