<svg width="223" height="91" viewBox="0 0 223 91" fill="none" xmlns="http://www.w3.org/2000/svg">
<rect x="1.2168" y="1.0022" width="220.5" height="88.5" stroke="#D9DCE5" stroke-width="1.5"/>
<path d="M83.6028 69.7522V58.5522H85.2988V63.3522L89.7148 58.5522H91.8108L87.6668 63.0162L91.9068 69.7522H89.8428L86.4508 64.3122L85.2988 65.5602V69.7522H83.6028ZM94.28 60.3122C93.96 60.3122 93.6934 60.2162 93.48 60.0242C93.2774 59.8215 93.176 59.5709 93.176 59.2722C93.176 58.9735 93.2774 58.7282 93.48 58.5362C93.6934 58.3335 93.96 58.2322 94.28 58.2322C94.6 58.2322 94.8614 58.3335 95.064 58.5362C95.2774 58.7282 95.384 58.9735 95.384 59.2722C95.384 59.5709 95.2774 59.8215 95.064 60.0242C94.8614 60.2162 94.6 60.3122 94.28 60.3122ZM93.432 69.7522V61.8162H95.128V69.7522H93.432ZM100.695 69.7522C99.9163 69.7522 99.2976 69.5655 98.8389 69.1922C98.3803 68.8082 98.1509 68.1309 98.1509 67.1602V63.2402H96.7909V61.8162H98.1509L98.3589 59.8002H99.8469V61.8162H102.087V63.2402H99.8469V67.1602C99.8469 67.5975 99.9376 67.9015 100.119 68.0722C100.311 68.2322 100.636 68.3122 101.095 68.3122H102.007V69.7522H100.695ZM107.393 69.9442C106.614 69.9442 105.915 69.7682 105.297 69.4162C104.689 69.0642 104.209 68.5789 103.857 67.9602C103.515 67.3309 103.345 66.6055 103.345 65.7842C103.345 64.9629 103.515 64.2429 103.857 63.6242C104.209 62.9949 104.689 62.5042 105.297 62.1522C105.915 61.8002 106.614 61.6242 107.393 61.6242C108.374 61.6242 109.195 61.8802 109.857 62.3922C110.529 62.9042 110.961 63.5975 111.153 64.4722H109.377C109.27 64.0349 109.035 63.6935 108.673 63.4482C108.31 63.2029 107.883 63.0802 107.393 63.0802C106.977 63.0802 106.593 63.1869 106.241 63.4002C105.889 63.6029 105.606 63.9069 105.393 64.3122C105.179 64.7069 105.073 65.1975 105.073 65.7842C105.073 66.3709 105.179 66.8669 105.393 67.2722C105.606 67.6669 105.889 67.9709 106.241 68.1842C106.593 68.3975 106.977 68.5042 107.393 68.5042C107.883 68.5042 108.31 68.3815 108.673 68.1362C109.035 67.8909 109.27 67.5442 109.377 67.0962H111.153C110.971 67.9495 110.545 68.6375 109.873 69.1602C109.201 69.6829 108.374 69.9442 107.393 69.9442ZM112.992 69.7522V58.2322H114.688V63.0962C114.955 62.6375 115.323 62.2802 115.792 62.0242C116.272 61.7575 116.8 61.6242 117.376 61.6242C118.325 61.6242 119.072 61.9229 119.616 62.5202C120.16 63.1175 120.432 64.0082 120.432 65.1922V69.7522H118.752V65.3682C118.752 63.8322 118.139 63.0642 116.912 63.0642C116.272 63.0642 115.739 63.2882 115.312 63.7362C114.896 64.1842 114.688 64.8242 114.688 65.6562V69.7522H112.992ZM126.141 69.9442C125.363 69.9442 124.669 69.7735 124.061 69.4322C123.464 69.0802 122.995 68.5949 122.653 67.9762C122.312 67.3575 122.141 66.6375 122.141 65.8162C122.141 64.9842 122.307 64.2535 122.637 63.6242C122.979 62.9949 123.448 62.5042 124.045 62.1522C124.653 61.8002 125.357 61.6242 126.157 61.6242C126.936 61.6242 127.613 61.8002 128.189 62.1522C128.765 62.4935 129.213 62.9522 129.533 63.5282C129.853 64.1042 130.013 64.7389 130.013 65.4322C130.013 65.5389 130.008 65.6562 129.997 65.7842C129.997 65.9015 129.992 66.0349 129.981 66.1842H123.805C123.859 66.9522 124.109 67.5389 124.557 67.9442C125.016 68.3389 125.544 68.5362 126.141 68.5362C126.621 68.5362 127.021 68.4295 127.341 68.2162C127.672 67.9922 127.917 67.6935 128.077 67.3202H129.773C129.56 68.0669 129.133 68.6909 128.493 69.1922C127.864 69.6935 127.08 69.9442 126.141 69.9442ZM126.141 63.0162C125.576 63.0162 125.075 63.1869 124.637 63.5282C124.2 63.8589 123.933 64.3602 123.837 65.0322H128.317C128.285 64.4135 128.067 63.9229 127.661 63.5602C127.256 63.1975 126.749 63.0162 126.141 63.0162ZM131.773 69.7522V61.8162H133.277L133.405 63.2082C133.651 62.7175 134.008 62.3335 134.477 62.0562C134.957 61.7682 135.507 61.6242 136.125 61.6242C137.085 61.6242 137.837 61.9229 138.381 62.5202C138.936 63.1175 139.213 64.0082 139.213 65.1922V69.7522H137.533V65.3682C137.533 63.8322 136.904 63.0642 135.645 63.0642C135.016 63.0642 134.493 63.2882 134.077 63.7362C133.672 64.1842 133.469 64.8242 133.469 65.6562V69.7522H131.773Z" fill="#808080"/>
<g clip-path="url(#clip0_2551_201)">
<path d="M99.4727 39.7522H109.359V34.083H99.4727V39.7522ZM101.635 35.5511H107.243V36.9567H101.635V35.5511Z" fill="#666666"/>
<path d="M99.4727 32.6774H109.359V27.1019H99.4727V32.6774ZM101.635 28.5975H107.243V30.0031H101.635V28.5975Z" fill="#666666"/>
<path d="M110.764 39.7522H123.461V27.1019H110.764V39.7522ZM119.197 28.5975H120.603V30.0378H119.197V28.5975ZM116.386 28.5975H117.792V30.0378H116.386V28.5975ZM113.575 28.5975H114.98V30.0378H113.575V28.5975ZM113.575 31.2952H120.603V36.9411H113.575V31.2952Z" fill="#666666"/>
<path d="M119.197 18.9927V15.7522H114.98V18.9951L110.764 21.8062V24.2907H123.461V21.8039L119.197 18.9927Z" fill="#666666"/>
</g>
<defs>
<clipPath id="clip0_2551_201">
<rect width="24" height="24" fill="white" transform="translate(99.4668 15.7522)"/>
</clipPath>
</defs>
</svg>
