<svg width="61" height="27" viewBox="0 0 61 27" fill="none" xmlns="http://www.w3.org/2000/svg">
<circle cx="13.9414" cy="13.6183" r="13" fill="#EF5423"/>
<g clip-path="url(#clip0_2551_12)">
<path d="M13.9414 18.0619C13.799 18.0619 13.6618 18.0104 13.5548 17.9167C13.1508 17.5634 12.7614 17.2315 12.4177 16.9387L12.416 16.9371C11.4085 16.0786 10.5385 15.3372 9.93323 14.6068C9.25658 13.7903 8.94141 13.0162 8.94141 12.1705C8.94141 11.3488 9.22316 10.5907 9.73471 10.0358C10.2524 9.47438 10.9627 9.16516 11.735 9.16516C12.3122 9.16516 12.8409 9.34766 13.3062 9.70753C13.541 9.88919 13.7539 10.1115 13.9414 10.3708C14.129 10.1115 14.3418 9.88919 14.5767 9.70753C15.042 9.34766 15.5707 9.16516 16.1479 9.16516C16.9201 9.16516 17.6305 9.47438 18.1482 10.0358C18.6597 10.5907 18.9414 11.3488 18.9414 12.1705C18.9414 13.0162 18.6263 13.7903 17.9496 14.6067C17.3443 15.3372 16.4744 16.0785 15.4671 16.937C15.1229 17.2303 14.7328 17.5627 14.3279 17.9168C14.221 18.0104 14.0837 18.0619 13.9414 18.0619ZM11.735 9.75094C11.1282 9.75094 10.5708 9.9931 10.1653 10.4329C9.75378 10.8793 9.52711 11.4963 9.52711 12.1705C9.52711 12.8817 9.79147 13.5179 10.3842 14.2331C10.9571 14.9244 11.8092 15.6505 12.7958 16.4913L12.7977 16.4929C13.1426 16.7868 13.5336 17.1201 13.9406 17.4759C14.3499 17.1194 14.7416 16.7856 15.0872 16.4912C16.0737 15.6504 16.9258 14.9244 17.4987 14.2331C18.0913 13.5179 18.3557 12.8817 18.3557 12.1705C18.3557 11.4963 18.129 10.8793 17.7175 10.4329C17.3121 9.9931 16.7546 9.75094 16.1479 9.75094C15.7034 9.75094 15.2953 9.89224 14.935 10.1709C14.6139 10.4193 14.3902 10.7333 14.259 10.953C14.1916 11.066 14.0729 11.1335 13.9414 11.1335C13.8099 11.1335 13.6912 11.066 13.6238 10.953C13.4927 10.7333 13.269 10.4193 12.9478 10.1709C12.5875 9.89224 12.1794 9.75094 11.735 9.75094Z" fill="white"/>
</g>
<circle cx="47.9414" cy="13.6183" r="13" fill="#ECF4FF"/>
<g clip-path="url(#clip1_2551_12)">
<path d="M50.8711 15.1027C50.2923 15.1027 49.7779 15.384 49.4575 15.8169L46.6983 14.4069C46.7446 14.2496 46.7695 14.0833 46.7695 13.9113C46.7695 13.6782 46.7238 13.4557 46.6411 13.252L49.5329 11.5146C49.8556 11.8933 50.3357 12.1339 50.8711 12.1339C51.8404 12.1339 52.6289 11.3454 52.6289 10.3761C52.6289 9.40684 51.8404 8.61829 50.8711 8.61829C49.9018 8.61829 49.1133 9.40684 49.1133 10.3761C49.1133 10.6001 49.1555 10.8144 49.2322 11.0116L46.3332 12.7534C46.0108 12.3859 45.5379 12.1534 45.0117 12.1534C44.0425 12.1534 43.2539 12.942 43.2539 13.9113C43.2539 14.8805 44.0425 15.6691 45.0117 15.6691C45.6 15.6691 46.1217 15.3785 46.441 14.9334L49.1921 16.3394C49.1409 16.5041 49.1133 16.6791 49.1133 16.8605C49.1133 17.8297 49.9018 18.6183 50.8711 18.6183C51.8404 18.6183 52.6289 17.8297 52.6289 16.8605C52.6289 15.8912 51.8404 15.1027 50.8711 15.1027ZM50.8711 9.20422C51.5173 9.20422 52.043 9.72993 52.043 10.3761C52.043 11.0223 51.5173 11.548 50.8711 11.548C50.2249 11.548 49.6992 11.0223 49.6992 10.3761C49.6992 9.72993 50.2249 9.20422 50.8711 9.20422ZM45.0117 15.0831C44.3655 15.0831 43.8398 14.5574 43.8398 13.9113C43.8398 13.2651 44.3655 12.7394 45.0117 12.7394C45.6579 12.7394 46.1836 13.2651 46.1836 13.9113C46.1836 14.5574 45.6579 15.0831 45.0117 15.0831ZM50.8711 18.0323C50.2249 18.0323 49.6992 17.5066 49.6992 16.8605C49.6992 16.2143 50.2249 15.6886 50.8711 15.6886C51.5173 15.6886 52.043 16.2143 52.043 16.8605C52.043 17.5066 51.5173 18.0323 50.8711 18.0323Z" fill="black"/>
</g>
<defs>
<clipPath id="clip0_2551_12">
<rect width="10" height="9.99998" fill="white" transform="translate(8.94141 8.61829)"/>
</clipPath>
<clipPath id="clip1_2551_12">
<rect width="10" height="10" fill="white" transform="translate(42.9414 8.61829)"/>
</clipPath>
</defs>
</svg>
