<svg width="223" height="91" viewBox="0 0 223 91" fill="none" xmlns="http://www.w3.org/2000/svg">
<rect x="1.2168" y="1.0022" width="220.5" height="88.5" stroke="#D9DCE5" stroke-width="1.5"/>
<path d="M67.1028 69.7522V58.5522H68.7988V68.4082H73.8868V69.7522H67.1028ZM76.6082 60.3122C76.2882 60.3122 76.0215 60.2162 75.8082 60.0242C75.6055 59.8215 75.5042 59.5709 75.5042 59.2722C75.5042 58.9735 75.6055 58.7282 75.8082 58.5362C76.0215 58.3335 76.2882 58.2322 76.6082 58.2322C76.9282 58.2322 77.1895 58.3335 77.3922 58.5362C77.6055 58.7282 77.7122 58.9735 77.7122 59.2722C77.7122 59.5709 77.6055 59.8215 77.3922 60.0242C77.1895 60.2162 76.9282 60.3122 76.6082 60.3122ZM75.7602 69.7522V61.8162H77.4562V69.7522H75.7602ZM81.919 69.7522L78.943 61.8162H80.719L82.927 68.1362L85.135 61.8162H86.895L83.935 69.7522H81.919ZM89.2488 60.3122C88.9288 60.3122 88.6621 60.2162 88.4488 60.0242C88.2461 59.8215 88.1448 59.5709 88.1448 59.2722C88.1448 58.9735 88.2461 58.7282 88.4488 58.5362C88.6621 58.3335 88.9288 58.2322 89.2488 58.2322C89.5688 58.2322 89.8301 58.3335 90.0328 58.5362C90.2461 58.7282 90.3528 58.9735 90.3528 59.2722C90.3528 59.5709 90.2461 59.8215 90.0328 60.0242C89.8301 60.2162 89.5688 60.3122 89.2488 60.3122ZM88.4008 69.7522V61.8162H90.0968V69.7522H88.4008ZM92.3357 69.7522V61.8162H93.8397L93.9677 63.2082C94.213 62.7175 94.5703 62.3335 95.0397 62.0562C95.5197 61.7682 96.069 61.6242 96.6877 61.6242C97.6477 61.6242 98.3997 61.9229 98.9437 62.5202C99.4983 63.1175 99.7757 64.0082 99.7757 65.1922V69.7522H98.0957V65.3682C98.0957 63.8322 97.4663 63.0642 96.2077 63.0642C95.5783 63.0642 95.0557 63.2882 94.6397 63.7362C94.2343 64.1842 94.0317 64.8242 94.0317 65.6562V69.7522H92.3357ZM105.021 67.3202C104.605 67.3202 104.221 67.2722 103.869 67.1762L103.181 67.8482C103.299 67.9229 103.443 67.9869 103.613 68.0402C103.784 68.0935 104.024 68.1415 104.333 68.1842C104.643 68.2269 105.064 68.2695 105.597 68.3122C106.653 68.4082 107.416 68.6642 107.885 69.0802C108.355 69.4855 108.589 70.0295 108.589 70.7122C108.589 71.1815 108.461 71.6242 108.205 72.0402C107.96 72.4669 107.571 72.8082 107.037 73.0642C106.515 73.3309 105.843 73.4642 105.021 73.4642C103.912 73.4642 103.011 73.2509 102.317 72.8242C101.635 72.4082 101.293 71.7735 101.293 70.9202C101.293 70.5895 101.379 70.2589 101.549 69.9282C101.731 69.6082 102.013 69.3042 102.397 69.0162C102.173 68.9202 101.976 68.8189 101.805 68.7122C101.645 68.5949 101.501 68.4775 101.373 68.3602V67.9762L102.749 66.5682C102.131 66.0349 101.821 65.3362 101.821 64.4722C101.821 63.9495 101.944 63.4749 102.189 63.0482C102.445 62.6109 102.813 62.2642 103.293 62.0082C103.773 61.7522 104.349 61.6242 105.021 61.6242C105.469 61.6242 105.885 61.6882 106.269 61.8162H109.229V62.9362L107.821 63.0162C108.077 63.4535 108.205 63.9389 108.205 64.4722C108.205 65.0055 108.077 65.4855 107.821 65.9122C107.576 66.3389 107.213 66.6802 106.733 66.9362C106.264 67.1922 105.693 67.3202 105.021 67.3202ZM105.021 65.9922C105.512 65.9922 105.907 65.8642 106.205 65.6082C106.515 65.3415 106.669 64.9682 106.669 64.4882C106.669 63.9975 106.515 63.6242 106.205 63.3682C105.907 63.1122 105.512 62.9842 105.021 62.9842C104.52 62.9842 104.115 63.1122 103.805 63.3682C103.507 63.6242 103.357 63.9975 103.357 64.4882C103.357 64.9682 103.507 65.3415 103.805 65.6082C104.115 65.8642 104.52 65.9922 105.021 65.9922ZM102.893 70.7602C102.893 71.2189 103.096 71.5602 103.501 71.7842C103.907 72.0189 104.413 72.1362 105.021 72.1362C105.608 72.1362 106.083 72.0082 106.445 71.7522C106.808 71.5069 106.989 71.1762 106.989 70.7602C106.989 70.4509 106.867 70.1842 106.621 69.9602C106.376 69.7469 105.912 69.6135 105.229 69.5602C104.717 69.5282 104.264 69.4802 103.869 69.4162C103.496 69.6189 103.24 69.8375 103.101 70.0722C102.963 70.3069 102.893 70.5362 102.893 70.7602ZM114.837 69.7522V58.5522H118.693C119.579 58.5522 120.304 58.7015 120.869 59.0002C121.445 59.2989 121.872 59.7042 122.149 60.2162C122.427 60.7175 122.565 61.2775 122.565 61.8962C122.565 62.5895 122.379 63.2189 122.005 63.7842C121.643 64.3495 121.072 64.7549 120.293 65.0002L122.677 69.7522H120.709L118.533 65.2402H116.533V69.7522H114.837ZM116.533 63.9602H118.597C119.365 63.9602 119.925 63.7735 120.277 63.4002C120.64 63.0269 120.821 62.5415 120.821 61.9442C120.821 61.3469 120.645 60.8722 120.293 60.5202C119.941 60.1575 119.371 59.9762 118.581 59.9762H116.533V63.9602ZM127.735 69.9442C126.978 69.9442 126.295 69.7735 125.687 69.4322C125.09 69.0802 124.615 68.5949 124.263 67.9762C123.911 67.3469 123.735 66.6162 123.735 65.7842C123.735 64.9522 123.911 64.2269 124.263 63.6082C124.626 62.9789 125.111 62.4935 125.719 62.1522C126.327 61.8002 127.005 61.6242 127.751 61.6242C128.509 61.6242 129.186 61.8002 129.783 62.1522C130.391 62.4935 130.871 62.9789 131.223 63.6082C131.586 64.2269 131.767 64.9522 131.767 65.7842C131.767 66.6162 131.586 67.3469 131.223 67.9762C130.871 68.5949 130.391 69.0802 129.783 69.4322C129.175 69.7735 128.493 69.9442 127.735 69.9442ZM127.735 68.4882C128.141 68.4882 128.514 68.3869 128.855 68.1842C129.207 67.9815 129.49 67.6829 129.703 67.2882C129.917 66.8829 130.023 66.3815 130.023 65.7842C130.023 65.1869 129.917 64.6909 129.703 64.2962C129.501 63.8909 129.223 63.5869 128.871 63.3842C128.53 63.1815 128.157 63.0802 127.751 63.0802C127.346 63.0802 126.967 63.1815 126.615 63.3842C126.274 63.5869 125.997 63.8909 125.783 64.2962C125.57 64.6909 125.463 65.1869 125.463 65.7842C125.463 66.3815 125.57 66.8829 125.783 67.2882C125.997 67.6829 126.274 67.9815 126.615 68.1842C126.957 68.3869 127.33 68.4882 127.735 68.4882ZM137.313 69.9442C136.556 69.9442 135.873 69.7735 135.265 69.4322C134.668 69.0802 134.193 68.5949 133.841 67.9762C133.489 67.3469 133.313 66.6162 133.313 65.7842C133.313 64.9522 133.489 64.2269 133.841 63.6082C134.204 62.9789 134.689 62.4935 135.297 62.1522C135.905 61.8002 136.583 61.6242 137.329 61.6242C138.087 61.6242 138.764 61.8002 139.361 62.1522C139.969 62.4935 140.449 62.9789 140.801 63.6082C141.164 64.2269 141.345 64.9522 141.345 65.7842C141.345 66.6162 141.164 67.3469 140.801 67.9762C140.449 68.5949 139.969 69.0802 139.361 69.4322C138.753 69.7735 138.071 69.9442 137.313 69.9442ZM137.313 68.4882C137.719 68.4882 138.092 68.3869 138.433 68.1842C138.785 67.9815 139.068 67.6829 139.281 67.2882C139.495 66.8829 139.601 66.3815 139.601 65.7842C139.601 65.1869 139.495 64.6909 139.281 64.2962C139.079 63.8909 138.801 63.5869 138.449 63.3842C138.108 63.1815 137.735 63.0802 137.329 63.0802C136.924 63.0802 136.545 63.1815 136.193 63.3842C135.852 63.5869 135.575 63.8909 135.361 64.2962C135.148 64.6909 135.041 65.1869 135.041 65.7842C135.041 66.3815 135.148 66.8829 135.361 67.2882C135.575 67.6829 135.852 67.9815 136.193 68.1842C136.535 68.3869 136.908 68.4882 137.313 68.4882ZM143.179 69.7522V61.8162H144.683L144.827 62.9362C145.083 62.5309 145.419 62.2109 145.835 61.9762C146.262 61.7415 146.753 61.6242 147.307 61.6242C148.566 61.6242 149.441 62.1202 149.931 63.1122C150.219 62.6535 150.603 62.2909 151.083 62.0242C151.574 61.7575 152.102 61.6242 152.667 61.6242C153.659 61.6242 154.438 61.9229 155.003 62.5202C155.569 63.1175 155.851 64.0082 155.851 65.1922V69.7522H154.155V65.3682C154.155 63.8322 153.569 63.0642 152.395 63.0642C151.798 63.0642 151.307 63.2882 150.923 63.7362C150.55 64.1842 150.363 64.8242 150.363 65.6562V69.7522H148.667V65.3682C148.667 63.8322 148.075 63.0642 146.891 63.0642C146.305 63.0642 145.819 63.2882 145.435 63.7362C145.062 64.1842 144.875 64.8242 144.875 65.6562V69.7522H143.179Z" fill="#808080"/>
<g clip-path="url(#clip0_2551_190)">
<path d="M103.92 27.0491H110.061C110.6 27.0491 111.093 27.2532 111.467 27.5879C111.84 27.2531 112.333 27.0491 112.873 27.0491H119.014V19.5085C119.014 19.122 118.704 18.8004 118.318 18.7991C118.312 18.7991 118.558 18.7991 104.623 18.7991C104.223 18.7991 103.92 19.1271 103.92 19.5085V27.0491Z" fill="#666666"/>
<path d="M112.17 29.1584V30.7991H119.014C119.014 29.7605 119.014 29.5472 119.014 28.4553H112.873C112.485 28.4553 112.17 28.7707 112.17 29.1584Z" fill="#666666"/>
<path d="M121.194 23.6751C120.761 23.6886 120.42 24.0522 120.42 24.4858C120.42 24.5971 120.42 31.9016 120.42 31.5022C120.42 31.8905 120.105 32.2053 119.717 32.2053C119.155 32.2053 102.683 32.2053 103.217 32.2053C102.828 32.2053 102.514 31.8905 102.514 31.5022C102.514 31.2428 102.514 24.4182 102.514 24.4858C102.514 24.0522 102.173 23.6886 101.74 23.6751C100.49 23.6362 99.4668 24.6356 99.4668 25.8772V33.0959C99.4668 34.2609 100.411 35.2053 101.576 35.2053H102.514V35.9823C102.514 36.3609 102.805 36.6867 103.183 36.7045C103.587 36.7236 103.92 36.4018 103.92 36.0022V35.2053H119.014V35.9823C119.014 36.3609 119.305 36.6867 119.683 36.7045C120.087 36.7236 120.42 36.4018 120.42 36.0022V35.2053H121.357C122.522 35.2053 123.467 34.2609 123.467 33.0959V25.9168C123.467 24.6188 122.435 23.6365 121.194 23.6751Z" fill="#666666"/>
<path d="M110.764 29.1584C110.764 28.7707 110.448 28.4553 110.061 28.4553H103.92V30.7991H110.764V29.1584Z" fill="#666666"/>
</g>
<defs>
<clipPath id="clip0_2551_190">
<rect width="24" height="24" fill="white" transform="translate(99.4668 15.7522)"/>
</clipPath>
</defs>
</svg>
