<svg width="223" height="91" viewBox="0 0 223 91" fill="none" xmlns="http://www.w3.org/2000/svg">
<rect x="0.466797" y="0.669434" width="222" height="90" fill="#154444"/>
<g clip-path="url(#clip0_2551_227)">
<path d="M123.467 24.2028V19.5153C123.467 18.6106 122.731 17.8746 121.826 17.8746H113.389C112.484 17.8746 111.748 18.6106 111.748 19.5153V24.2028C111.748 25.1074 112.484 25.8434 113.389 25.8434H115.301L114.949 27.2496H111.014L110.871 24.107C110.819 22.9779 109.894 22.0934 108.764 22.0934H104.889C103.758 22.0934 102.833 22.9779 102.782 24.107L102.639 27.2496H100.17C99.7816 27.2496 99.4668 27.5644 99.4668 27.9528V40.1403C99.4668 40.5286 99.7816 40.8434 100.17 40.8434C100.558 40.8434 100.873 40.5286 100.873 40.1403V31.4684H102.471C102.522 32.0472 102.765 32.5869 103.174 33.0152C103.591 33.4506 104.13 33.7196 104.717 33.7917V34.984C104.717 35.8091 105.329 36.4935 106.123 36.6076V38.2974L103.352 39.0892C103.05 39.1754 102.842 39.4513 102.842 39.7653V41.1715C102.842 41.5598 103.157 41.8746 103.545 41.8746C103.933 41.8746 104.248 41.5598 104.248 41.1715V40.2956L106.123 39.7599V40.7028C106.123 41.0911 106.438 41.4059 106.826 41.4059C107.214 41.4059 107.529 41.0911 107.529 40.7028V39.7599L109.404 40.2957V41.1715C109.404 41.5598 109.719 41.8746 110.107 41.8746C110.496 41.8746 110.811 41.5598 110.811 41.1715V39.7653C110.811 39.4513 110.602 39.1754 110.301 39.0892L107.529 38.2974V36.6077C108.323 36.4936 108.936 35.8091 108.936 34.9841V33.7918C109.523 33.7196 110.062 33.4507 110.478 33.0152C110.887 32.587 111.13 32.0473 111.181 31.4684H112.686V40.1403C112.686 40.5286 113 40.8434 113.389 40.8434C113.777 40.8434 114.092 40.5286 114.092 40.1403V38.0309H122.061V40.1403C122.061 40.5286 122.375 40.8434 122.764 40.8434C123.152 40.8434 123.467 40.5286 123.467 40.1403V27.9528C123.467 27.5644 123.152 27.2496 122.764 27.2496H120.266L119.914 25.8434H121.826C122.731 25.8434 123.467 25.1074 123.467 24.2028ZM102.511 30.0621H100.873V28.6559H102.575L102.511 30.0621ZM107.529 34.984C107.529 35.1132 107.424 35.2184 107.295 35.2184H106.357C106.228 35.2184 106.123 35.1132 106.123 34.984V33.8121H107.529V34.984ZM109.461 32.0436C109.238 32.2772 108.937 32.4059 108.614 32.4059H105.038C104.715 32.4059 104.414 32.2772 104.191 32.0436C103.968 31.81 103.853 31.5035 103.868 31.1808L104.186 24.1708C104.203 23.7945 104.512 23.4996 104.889 23.4996H108.764C109.14 23.4996 109.449 23.7945 109.466 24.1708L109.785 31.1808C109.799 31.5036 109.685 31.81 109.461 32.0436ZM122.061 36.6246H114.092V31.4684H122.061V36.6246ZM122.061 28.6559V30.0621H111.142L111.078 28.6559H122.061ZM116.399 27.2496L116.75 25.8434H118.465L118.816 27.2496H116.399ZM113.389 24.4371C113.259 24.4371 113.154 24.332 113.154 24.2028V19.5153C113.154 19.386 113.259 19.2809 113.389 19.2809H121.826C121.955 19.2809 122.061 19.386 122.061 19.5153V24.2028C122.061 24.332 121.955 24.4371 121.826 24.4371H113.389Z" fill="white"/>
<path d="M116.67 34.2809H119.482C119.871 34.2809 120.186 33.9661 120.186 33.5778C120.186 33.1894 119.871 32.8746 119.482 32.8746H116.67C116.282 32.8746 115.967 33.1894 115.967 33.5778C115.967 33.9661 116.282 34.2809 116.67 34.2809Z" fill="white"/>
</g>
<path d="M94.2708 68.6562C93.1615 68.6562 92.1908 68.4109 91.3588 67.9202C90.5268 67.4296 89.8761 66.7522 89.4068 65.8882C88.9375 65.0136 88.7028 64.0056 88.7028 62.8642C88.7028 61.7229 88.9375 60.7202 89.4068 59.8562C89.8761 58.9816 90.5268 58.2989 91.3588 57.8082C92.1908 57.3176 93.1615 57.0722 94.2708 57.0722C95.3801 57.0722 96.3508 57.3176 97.1828 57.8082C98.0148 58.2989 98.6601 58.9816 99.1188 59.8562C99.5881 60.7202 99.8228 61.7229 99.8228 62.8642C99.8228 64.0056 99.5881 65.0136 99.1188 65.8882C98.6601 66.7522 98.0148 67.4296 97.1828 67.9202C96.3508 68.4109 95.3801 68.6562 94.2708 68.6562ZM94.2708 67.1362C95.0388 67.1362 95.7055 66.9656 96.2708 66.6242C96.8468 66.2829 97.2948 65.7922 97.6148 65.1522C97.9348 64.5122 98.0948 63.7496 98.0948 62.8642C98.0948 61.9789 97.9348 61.2162 97.6148 60.5762C97.2948 59.9362 96.8468 59.4456 96.2708 59.1042C95.7055 58.7629 95.0388 58.5922 94.2708 58.5922C93.5028 58.5922 92.8308 58.7629 92.2548 59.1042C91.6788 59.4456 91.2308 59.9362 90.9108 60.5762C90.6015 61.2162 90.4468 61.9789 90.4468 62.8642C90.4468 63.7496 90.6015 64.5122 90.9108 65.1522C91.2308 65.7922 91.6788 66.2829 92.2548 66.6242C92.8308 66.9656 93.5028 67.1362 94.2708 67.1362ZM102.048 68.4642V61.9522H100.912V60.5282H102.048V59.3762C102.048 58.5122 102.262 57.8936 102.688 57.5202C103.126 57.1362 103.739 56.9442 104.528 56.9442H105.36V58.3842H104.784C104.411 58.3842 104.144 58.4642 103.984 58.6242C103.824 58.7736 103.744 59.0296 103.744 59.3922V60.5282H105.568V61.9522H103.744V68.4642H102.048ZM107.579 68.4642V61.9522H106.443V60.5282H107.579V59.3762C107.579 58.5122 107.793 57.8936 108.219 57.5202C108.657 57.1362 109.27 56.9442 110.059 56.9442H110.891V58.3842H110.315C109.942 58.3842 109.675 58.4642 109.515 58.6242C109.355 58.7736 109.275 59.0296 109.275 59.3922V60.5282H114.299V68.4642H112.603V61.9522H109.275V68.4642H107.579ZM113.467 59.2002C113.147 59.2002 112.881 59.1042 112.667 58.9122C112.465 58.7096 112.363 58.4536 112.363 58.1442C112.363 57.8456 112.465 57.6002 112.667 57.4082C112.881 57.2162 113.147 57.1202 113.467 57.1202C113.787 57.1202 114.049 57.2162 114.251 57.4082C114.465 57.6002 114.571 57.8456 114.571 58.1442C114.571 58.4536 114.465 58.7096 114.251 58.9122C114.049 59.1042 113.787 59.2002 113.467 59.2002ZM120.314 68.6562C119.536 68.6562 118.837 68.4802 118.218 68.1282C117.61 67.7762 117.13 67.2909 116.778 66.6722C116.437 66.0429 116.266 65.3176 116.266 64.4962C116.266 63.6749 116.437 62.9549 116.778 62.3362C117.13 61.7069 117.61 61.2162 118.218 60.8642C118.837 60.5122 119.536 60.3362 120.314 60.3362C121.296 60.3362 122.117 60.5922 122.778 61.1042C123.45 61.6162 123.882 62.3096 124.074 63.1842H122.298C122.192 62.7469 121.957 62.4056 121.594 62.1602C121.232 61.9149 120.805 61.7922 120.314 61.7922C119.898 61.7922 119.514 61.8989 119.162 62.1122C118.81 62.3149 118.528 62.6189 118.314 63.0242C118.101 63.4189 117.994 63.9096 117.994 64.4962C117.994 65.0829 118.101 65.5789 118.314 65.9842C118.528 66.3789 118.81 66.6829 119.162 66.8962C119.514 67.1096 119.898 67.2162 120.314 67.2162C120.805 67.2162 121.232 67.0936 121.594 66.8482C121.957 66.6029 122.192 66.2562 122.298 65.8082H124.074C123.893 66.6616 123.466 67.3496 122.794 67.8722C122.122 68.3949 121.296 68.6562 120.314 68.6562ZM129.626 68.6562C128.847 68.6562 128.154 68.4856 127.546 68.1442C126.948 67.7922 126.479 67.3069 126.138 66.6882C125.796 66.0696 125.626 65.3496 125.626 64.5282C125.626 63.6962 125.791 62.9656 126.122 62.3362C126.463 61.7069 126.932 61.2162 127.53 60.8642C128.138 60.5122 128.842 60.3362 129.642 60.3362C130.42 60.3362 131.098 60.5122 131.674 60.8642C132.25 61.2056 132.698 61.6642 133.018 62.2402C133.338 62.8162 133.498 63.4509 133.498 64.1442C133.498 64.2509 133.492 64.3682 133.482 64.4962C133.482 64.6136 133.476 64.7469 133.466 64.8962H127.29C127.343 65.6642 127.594 66.2509 128.042 66.6562C128.5 67.0509 129.028 67.2482 129.626 67.2482C130.106 67.2482 130.506 67.1416 130.826 66.9282C131.156 66.7042 131.402 66.4056 131.562 66.0322H133.258C133.044 66.7789 132.618 67.4029 131.978 67.9042C131.348 68.4056 130.564 68.6562 129.626 68.6562ZM129.626 61.7282C129.06 61.7282 128.559 61.8989 128.122 62.2402C127.684 62.5709 127.418 63.0722 127.322 63.7442H131.802C131.77 63.1256 131.551 62.6349 131.146 62.2722C130.74 61.9096 130.234 61.7282 129.626 61.7282Z" fill="white"/>
<defs>
<clipPath id="clip0_2551_227">
<rect width="24" height="24" fill="white" transform="translate(99.4668 17.8746)"/>
</clipPath>
</defs>
</svg>
